<mxfile host="app.diagrams.net" agent="Mozilla/5.0 (Macintosh; Intel Mac OS X 10_15_7) AppleWebKit/537.36 (KHTML, like Gecko) Chrome/131.0.0.0 Safari/537.36" version="26.0.14">
  <diagram name="Page-1" id="nH1qdjiqmvXXHUEM3JMR">
    <mxGraphModel dx="920" dy="1037" grid="1" gridSize="10" guides="1" tooltips="1" connect="1" arrows="1" fold="1" page="1" pageScale="1" pageWidth="1600" pageHeight="900" math="1" shadow="0">
      <root>
        <mxCell id="0" />
        <mxCell id="1" parent="0" />
        <mxCell id="_RDqwr_tlivfIo12Mu4f-3" style="edgeStyle=orthogonalEdgeStyle;rounded=0;orthogonalLoop=1;jettySize=auto;html=1;endArrow=none;startFill=0;" parent="1" source="_RDqwr_tlivfIo12Mu4f-1" target="_RDqwr_tlivfIo12Mu4f-2" edge="1">
          <mxGeometry relative="1" as="geometry" />
        </mxCell>
        <mxCell id="_RDqwr_tlivfIo12Mu4f-5" style="edgeStyle=orthogonalEdgeStyle;rounded=0;orthogonalLoop=1;jettySize=auto;html=1;endArrow=none;startFill=0;" parent="1" source="_RDqwr_tlivfIo12Mu4f-1" target="_RDqwr_tlivfIo12Mu4f-4" edge="1">
          <mxGeometry relative="1" as="geometry" />
        </mxCell>
        <mxCell id="_RDqwr_tlivfIo12Mu4f-7" style="edgeStyle=orthogonalEdgeStyle;rounded=0;orthogonalLoop=1;jettySize=auto;html=1;endArrow=none;startFill=0;" parent="1" source="_RDqwr_tlivfIo12Mu4f-1" target="_RDqwr_tlivfIo12Mu4f-6" edge="1">
          <mxGeometry relative="1" as="geometry" />
        </mxCell>
        <mxCell id="Pm5CIFfC1kqk-WcR3UVo-35" style="edgeStyle=orthogonalEdgeStyle;rounded=0;orthogonalLoop=1;jettySize=auto;html=1;endArrow=none;startFill=0;" edge="1" parent="1" source="_RDqwr_tlivfIo12Mu4f-1" target="Pm5CIFfC1kqk-WcR3UVo-34">
          <mxGeometry relative="1" as="geometry" />
        </mxCell>
        <mxCell id="Pm5CIFfC1kqk-WcR3UVo-45" value="N" style="edgeLabel;html=1;align=center;verticalAlign=middle;resizable=0;points=[];fontSize=25;" vertex="1" connectable="0" parent="Pm5CIFfC1kqk-WcR3UVo-35">
          <mxGeometry x="0.0435" y="-2" relative="1" as="geometry">
            <mxPoint as="offset" />
          </mxGeometry>
        </mxCell>
        <mxCell id="_RDqwr_tlivfIo12Mu4f-1" value="BOOK" style="whiteSpace=wrap;html=1;align=center;" parent="1" vertex="1">
          <mxGeometry x="340" y="270" width="100" height="40" as="geometry" />
        </mxCell>
        <mxCell id="_RDqwr_tlivfIo12Mu4f-2" value="BookID" style="ellipse;whiteSpace=wrap;html=1;align=center;fontStyle=4" parent="1" vertex="1">
          <mxGeometry x="190" y="350" width="100" height="40" as="geometry" />
        </mxCell>
        <mxCell id="_RDqwr_tlivfIo12Mu4f-4" value="Author" style="ellipse;shape=doubleEllipse;margin=3;whiteSpace=wrap;html=1;align=center;" parent="1" vertex="1">
          <mxGeometry x="100" y="270" width="100" height="40" as="geometry" />
        </mxCell>
        <mxCell id="_RDqwr_tlivfIo12Mu4f-6" value="Shelf" style="ellipse;whiteSpace=wrap;html=1;align=center;" parent="1" vertex="1">
          <mxGeometry x="190" y="200" width="100" height="40" as="geometry" />
        </mxCell>
        <mxCell id="Pm5CIFfC1kqk-WcR3UVo-18" style="rounded=0;orthogonalLoop=1;jettySize=auto;html=1;endArrow=none;startFill=0;edgeStyle=orthogonalEdgeStyle;startArrow=none;" edge="1" parent="1" source="Pm5CIFfC1kqk-WcR3UVo-1" target="Pm5CIFfC1kqk-WcR3UVo-16">
          <mxGeometry relative="1" as="geometry" />
        </mxCell>
        <mxCell id="Pm5CIFfC1kqk-WcR3UVo-22" value="\(\subset\)" style="edgeLabel;html=1;align=center;verticalAlign=middle;resizable=0;points=[];rotation=-180;" vertex="1" connectable="0" parent="Pm5CIFfC1kqk-WcR3UVo-18">
          <mxGeometry x="-0.2857" relative="1" as="geometry">
            <mxPoint as="offset" />
          </mxGeometry>
        </mxCell>
        <mxCell id="Pm5CIFfC1kqk-WcR3UVo-19" style="rounded=0;orthogonalLoop=1;jettySize=auto;html=1;endArrow=none;startFill=0;edgeStyle=orthogonalEdgeStyle;" edge="1" parent="1" source="Pm5CIFfC1kqk-WcR3UVo-1" target="Pm5CIFfC1kqk-WcR3UVo-15">
          <mxGeometry relative="1" as="geometry" />
        </mxCell>
        <mxCell id="Pm5CIFfC1kqk-WcR3UVo-21" value="\(\subset\)" style="edgeLabel;html=1;align=center;verticalAlign=middle;resizable=0;points=[];" vertex="1" connectable="0" parent="Pm5CIFfC1kqk-WcR3UVo-19">
          <mxGeometry x="-0.232" y="-1" relative="1" as="geometry">
            <mxPoint as="offset" />
          </mxGeometry>
        </mxCell>
        <mxCell id="Pm5CIFfC1kqk-WcR3UVo-1" value="d" style="ellipse;whiteSpace=wrap;html=1;aspect=fixed;" vertex="1" parent="1">
          <mxGeometry x="1095" y="340" width="30" height="30" as="geometry" />
        </mxCell>
        <mxCell id="Pm5CIFfC1kqk-WcR3UVo-5" style="edgeStyle=orthogonalEdgeStyle;rounded=0;orthogonalLoop=1;jettySize=auto;html=1;endArrow=none;startFill=0;" edge="1" parent="1" source="Pm5CIFfC1kqk-WcR3UVo-2" target="Pm5CIFfC1kqk-WcR3UVo-1">
          <mxGeometry relative="1" as="geometry" />
        </mxCell>
        <mxCell id="Pm5CIFfC1kqk-WcR3UVo-8" style="edgeStyle=orthogonalEdgeStyle;rounded=0;orthogonalLoop=1;jettySize=auto;html=1;endArrow=none;startFill=0;" edge="1" parent="1" source="Pm5CIFfC1kqk-WcR3UVo-2" target="Pm5CIFfC1kqk-WcR3UVo-7">
          <mxGeometry relative="1" as="geometry" />
        </mxCell>
        <mxCell id="Pm5CIFfC1kqk-WcR3UVo-10" style="edgeStyle=orthogonalEdgeStyle;rounded=0;orthogonalLoop=1;jettySize=auto;html=1;endArrow=none;startFill=0;" edge="1" parent="1" source="Pm5CIFfC1kqk-WcR3UVo-2" target="Pm5CIFfC1kqk-WcR3UVo-9">
          <mxGeometry relative="1" as="geometry" />
        </mxCell>
        <mxCell id="Pm5CIFfC1kqk-WcR3UVo-12" style="edgeStyle=orthogonalEdgeStyle;rounded=0;orthogonalLoop=1;jettySize=auto;html=1;endArrow=none;startFill=0;" edge="1" parent="1" source="Pm5CIFfC1kqk-WcR3UVo-2" target="Pm5CIFfC1kqk-WcR3UVo-11">
          <mxGeometry relative="1" as="geometry" />
        </mxCell>
        <mxCell id="Pm5CIFfC1kqk-WcR3UVo-14" style="edgeStyle=orthogonalEdgeStyle;rounded=0;orthogonalLoop=1;jettySize=auto;html=1;endArrow=none;startFill=0;" edge="1" parent="1" source="Pm5CIFfC1kqk-WcR3UVo-2" target="Pm5CIFfC1kqk-WcR3UVo-13">
          <mxGeometry relative="1" as="geometry" />
        </mxCell>
        <mxCell id="Pm5CIFfC1kqk-WcR3UVo-2" value="BORROWER" style="whiteSpace=wrap;html=1;align=center;" vertex="1" parent="1">
          <mxGeometry x="1060" y="210" width="100" height="40" as="geometry" />
        </mxCell>
        <mxCell id="Pm5CIFfC1kqk-WcR3UVo-7" value="&lt;u&gt;CitizenID&lt;/u&gt;" style="ellipse;whiteSpace=wrap;html=1;align=center;" vertex="1" parent="1">
          <mxGeometry x="1020" y="90" width="100" height="40" as="geometry" />
        </mxCell>
        <mxCell id="Pm5CIFfC1kqk-WcR3UVo-9" value="Name" style="ellipse;whiteSpace=wrap;html=1;align=center;" vertex="1" parent="1">
          <mxGeometry x="1130" y="90" width="100" height="40" as="geometry" />
        </mxCell>
        <mxCell id="Pm5CIFfC1kqk-WcR3UVo-11" value="Address" style="ellipse;whiteSpace=wrap;html=1;align=center;" vertex="1" parent="1">
          <mxGeometry x="1240" y="90" width="100" height="40" as="geometry" />
        </mxCell>
        <mxCell id="Pm5CIFfC1kqk-WcR3UVo-13" value="TelNum" style="ellipse;whiteSpace=wrap;html=1;align=center;" vertex="1" parent="1">
          <mxGeometry x="1360" y="90" width="100" height="40" as="geometry" />
        </mxCell>
        <mxCell id="Pm5CIFfC1kqk-WcR3UVo-26" style="edgeStyle=orthogonalEdgeStyle;rounded=0;orthogonalLoop=1;jettySize=auto;html=1;endArrow=none;startFill=0;" edge="1" parent="1" source="Pm5CIFfC1kqk-WcR3UVo-15" target="Pm5CIFfC1kqk-WcR3UVo-23">
          <mxGeometry relative="1" as="geometry" />
        </mxCell>
        <mxCell id="Pm5CIFfC1kqk-WcR3UVo-27" style="edgeStyle=orthogonalEdgeStyle;rounded=0;orthogonalLoop=1;jettySize=auto;html=1;endArrow=none;startFill=0;" edge="1" parent="1" source="Pm5CIFfC1kqk-WcR3UVo-15" target="Pm5CIFfC1kqk-WcR3UVo-24">
          <mxGeometry relative="1" as="geometry" />
        </mxCell>
        <mxCell id="Pm5CIFfC1kqk-WcR3UVo-15" value="STUDENT" style="whiteSpace=wrap;html=1;align=center;" vertex="1" parent="1">
          <mxGeometry x="920" y="480" width="100" height="40" as="geometry" />
        </mxCell>
        <mxCell id="Pm5CIFfC1kqk-WcR3UVo-31" style="edgeStyle=orthogonalEdgeStyle;rounded=0;orthogonalLoop=1;jettySize=auto;html=1;endArrow=none;startFill=0;" edge="1" parent="1" source="Pm5CIFfC1kqk-WcR3UVo-16" target="Pm5CIFfC1kqk-WcR3UVo-28">
          <mxGeometry relative="1" as="geometry" />
        </mxCell>
        <mxCell id="Pm5CIFfC1kqk-WcR3UVo-32" style="edgeStyle=orthogonalEdgeStyle;rounded=0;orthogonalLoop=1;jettySize=auto;html=1;endArrow=none;startFill=0;" edge="1" parent="1" source="Pm5CIFfC1kqk-WcR3UVo-16" target="Pm5CIFfC1kqk-WcR3UVo-29">
          <mxGeometry relative="1" as="geometry" />
        </mxCell>
        <mxCell id="Pm5CIFfC1kqk-WcR3UVo-16" value="PROFESSOR" style="whiteSpace=wrap;html=1;align=center;" vertex="1" parent="1">
          <mxGeometry x="1190" y="470" width="100" height="40" as="geometry" />
        </mxCell>
        <mxCell id="Pm5CIFfC1kqk-WcR3UVo-23" value="StudentID" style="ellipse;whiteSpace=wrap;html=1;align=center;" vertex="1" parent="1">
          <mxGeometry x="830" y="570" width="100" height="40" as="geometry" />
        </mxCell>
        <mxCell id="Pm5CIFfC1kqk-WcR3UVo-24" value="Faculty" style="ellipse;whiteSpace=wrap;html=1;align=center;" vertex="1" parent="1">
          <mxGeometry x="970" y="570" width="100" height="40" as="geometry" />
        </mxCell>
        <mxCell id="Pm5CIFfC1kqk-WcR3UVo-28" value="ProfessorID" style="ellipse;whiteSpace=wrap;html=1;align=center;" vertex="1" parent="1">
          <mxGeometry x="1125" y="570" width="100" height="40" as="geometry" />
        </mxCell>
        <mxCell id="Pm5CIFfC1kqk-WcR3UVo-29" value="Faculty" style="ellipse;whiteSpace=wrap;html=1;align=center;" vertex="1" parent="1">
          <mxGeometry x="1290" y="570" width="100" height="40" as="geometry" />
        </mxCell>
        <mxCell id="Pm5CIFfC1kqk-WcR3UVo-36" style="edgeStyle=orthogonalEdgeStyle;rounded=0;orthogonalLoop=1;jettySize=auto;html=1;endArrow=none;startFill=0;" edge="1" parent="1" source="Pm5CIFfC1kqk-WcR3UVo-34" target="Pm5CIFfC1kqk-WcR3UVo-2">
          <mxGeometry relative="1" as="geometry" />
        </mxCell>
        <mxCell id="Pm5CIFfC1kqk-WcR3UVo-46" value="&lt;font style=&quot;font-size: 25px;&quot;&gt;1&lt;/font&gt;" style="edgeLabel;html=1;align=center;verticalAlign=middle;resizable=0;points=[];" vertex="1" connectable="0" parent="Pm5CIFfC1kqk-WcR3UVo-36">
          <mxGeometry x="-0.0546" relative="1" as="geometry">
            <mxPoint as="offset" />
          </mxGeometry>
        </mxCell>
        <mxCell id="Pm5CIFfC1kqk-WcR3UVo-42" style="edgeStyle=orthogonalEdgeStyle;rounded=0;orthogonalLoop=1;jettySize=auto;html=1;endArrow=none;startFill=0;exitX=0.5;exitY=0;exitDx=0;exitDy=0;" edge="1" parent="1" source="Pm5CIFfC1kqk-WcR3UVo-34" target="Pm5CIFfC1kqk-WcR3UVo-39">
          <mxGeometry relative="1" as="geometry" />
        </mxCell>
        <mxCell id="Pm5CIFfC1kqk-WcR3UVo-43" style="edgeStyle=orthogonalEdgeStyle;rounded=0;orthogonalLoop=1;jettySize=auto;html=1;endArrow=none;startFill=0;" edge="1" parent="1" source="Pm5CIFfC1kqk-WcR3UVo-34" target="Pm5CIFfC1kqk-WcR3UVo-38">
          <mxGeometry relative="1" as="geometry" />
        </mxCell>
        <mxCell id="Pm5CIFfC1kqk-WcR3UVo-44" style="edgeStyle=orthogonalEdgeStyle;rounded=0;orthogonalLoop=1;jettySize=auto;html=1;exitX=0.5;exitY=0;exitDx=0;exitDy=0;endArrow=none;startFill=0;" edge="1" parent="1" source="Pm5CIFfC1kqk-WcR3UVo-34" target="Pm5CIFfC1kqk-WcR3UVo-37">
          <mxGeometry relative="1" as="geometry" />
        </mxCell>
        <mxCell id="Pm5CIFfC1kqk-WcR3UVo-34" value="borrowed by" style="shape=rhombus;perimeter=rhombusPerimeter;whiteSpace=wrap;html=1;align=center;" vertex="1" parent="1">
          <mxGeometry x="640" y="260" width="120" height="60" as="geometry" />
        </mxCell>
        <mxCell id="Pm5CIFfC1kqk-WcR3UVo-37" value="BorrowDate" style="ellipse;whiteSpace=wrap;html=1;align=center;" vertex="1" parent="1">
          <mxGeometry x="520" y="120" width="100" height="40" as="geometry" />
        </mxCell>
        <mxCell id="Pm5CIFfC1kqk-WcR3UVo-38" value="ReturnDate" style="ellipse;whiteSpace=wrap;html=1;align=center;" vertex="1" parent="1">
          <mxGeometry x="650" y="120" width="100" height="40" as="geometry" />
        </mxCell>
        <mxCell id="Pm5CIFfC1kqk-WcR3UVo-39" value="Penalty" style="ellipse;whiteSpace=wrap;html=1;align=center;" vertex="1" parent="1">
          <mxGeometry x="770" y="120" width="100" height="40" as="geometry" />
        </mxCell>
      </root>
    </mxGraphModel>
  </diagram>
</mxfile>
